<svg width="158" height="29" xmlns="http://www.w3.org/2000/svg"><path d="M15.633 19.93h4.725c1.553 0 2.666-.336 3.485-1.071.799-.714 1.24-1.764 1.24-2.877 0-1.029-.378-2.016-1.008-2.646-.441-.462-.883-.672-1.828-.882.547-.336.777-.525 1.009-.84.314-.504.524-1.239.524-1.995 0-1.155-.483-2.247-1.26-2.856-.713-.567-1.805-.84-3.422-.84h-3.465zm2.73-8.169V8.128h.819c1.365 0 2.079.609 2.079 1.806 0 1.218-.714 1.827-2.121 1.827zm0 5.964V13.84h1.029c1.134 0 1.575.084 2.058.399.524.315.819.882.819 1.554 0 1.302-.882 1.932-2.73 1.932zm17.535-.756l1.196 2.961h2.92l-5.88-14.301h-2.059L26.006 19.93h2.898l1.26-2.961zm-.862-2.205h-3.99l2.038-5.04zm6.636 5.166h4.726c1.553 0 2.666-.336 3.485-1.071.798-.714 1.24-1.764 1.24-2.877 0-1.029-.378-2.016-1.008-2.646-.442-.462-.883-.672-1.828-.882.547-.336.778-.525 1.008-.84.316-.504.526-1.239.526-1.995 0-1.155-.483-2.247-1.26-2.856-.715-.567-1.806-.84-3.423-.84h-3.465zm2.73-8.169V8.128h.82c1.364 0 2.078.609 2.078 1.806 0 1.218-.713 1.827-2.12 1.827zm0 5.964V13.84h1.03c1.133 0 1.575.084 2.057.399.526.315.82.882.82 1.554 0 1.302-.883 1.932-2.73 1.932zm12.349-4.221v6.426h2.73v-6.426l4.913-7.581H61.14l-2.96 4.872-3.025-4.872H51.92zm9.134 6.426h4.725c1.555 0 2.668-.336 3.487-1.071.797-.714 1.239-1.764 1.239-2.877 0-1.029-.379-2.016-1.008-2.646-.442-.462-.883-.672-1.828-.882.546-.336.778-.525 1.008-.84.316-.504.526-1.239.526-1.995 0-1.155-.484-2.247-1.26-2.856-.715-.567-1.806-.84-3.424-.84h-3.465zm2.73-8.169V8.128h.82c1.364 0 2.078.609 2.078 1.806 0 1.218-.714 1.827-2.12 1.827zm0 5.964V13.84h1.03c1.133 0 1.575.084 2.058.399.525.315.819.882.819 1.554 0 1.302-.883 1.932-2.73 1.932zm11.97-11.802h-2.73v8.568c0 1.638.316 2.793 1.03 3.738.965 1.26 2.688 2.016 4.599 2.016 1.91 0 3.633-.756 4.599-2.016.713-.945 1.029-2.1 1.029-3.738V5.923h-2.73v8.022c0 1.428-.085 1.89-.442 2.499-.462.798-1.406 1.302-2.456 1.302s-1.995-.504-2.457-1.302c-.358-.609-.442-1.071-.442-2.499zM91.57 19.93h2.75l1.407-8.631 3.718 8.82h.755l3.844-8.82 1.26 8.631h2.75l-2.33-14.259h-1.89l-3.97 9.156-3.822-9.156h-1.868zm21.713-5.187h1.764c1.66 0 2.793-.399 3.591-1.239.715-.777 1.135-1.911 1.135-3.129 0-1.344-.526-2.562-1.428-3.381-.882-.777-1.87-1.071-3.697-1.071h-4.095V19.93h2.73zm0-2.373V8.296h.946c1.008 0 1.596.126 2.016.441.44.336.713.945.713 1.617 0 1.344-.86 2.016-2.561 2.016zm12.349 5.187l2.435-2.583c1.785-1.89 2.541-3.339 2.541-4.893 0-2.604-2.1-4.515-4.934-4.515-2.835 0-4.725 1.827-4.915 4.725h2.92c.063-1.449.819-2.31 2.079-2.31 1.175 0 2.12.924 2.12 2.121 0 1.176-.671 2.247-3.212 5.145l-4.138 4.683h10.186v-2.373zm12.41-11.991c-1.532 0-2.96.777-3.99 2.142-.944 1.281-1.448 3.066-1.448 5.103 0 2.289.462 3.948 1.448 5.334.988 1.365 2.437 2.142 3.99 2.142 1.534 0 2.983-.798 3.97-2.142.965-1.365 1.448-3.066 1.448-5.229 0-2.163-.483-3.864-1.448-5.208-1.008-1.365-2.436-2.142-3.97-2.142zm0 2.415c1.576 0 2.689 2.058 2.689 4.935 0 2.898-1.113 4.956-2.688 4.956-1.596 0-2.71-2.058-2.71-5.019 0-2.814 1.135-4.872 2.71-4.872z" fill="#fff"/></svg>