<svg width="88" height="22" xmlns="http://www.w3.org/2000/svg"><path d="M10.56 13.994l2.552-2.706c1.87-1.98 2.662-3.498 2.662-5.126 0-2.728-2.2-4.73-5.17-4.73-2.97 0-4.95 1.914-5.148 4.95h3.058c.066-1.518.858-2.42 2.178-2.42 1.232 0 2.222.968 2.222 2.222 0 1.232-.704 2.354-3.366 5.39L5.214 16.48h10.67v-2.486zM23.562 1.432c-1.606 0-3.102.814-4.18 2.244-.99 1.342-1.518 3.212-1.518 5.346 0 2.398.484 4.136 1.518 5.588 1.034 1.43 2.552 2.244 4.18 2.244 1.606 0 3.124-.836 4.158-2.244 1.012-1.43 1.518-3.212 1.518-5.478 0-2.266-.506-4.048-1.518-5.456-1.056-1.43-2.552-2.244-4.158-2.244zm0 2.53c1.65 0 2.816 2.156 2.816 5.17 0 3.036-1.166 5.192-2.816 5.192-1.672 0-2.838-2.156-2.838-5.258 0-2.948 1.188-5.104 2.838-5.104zM34.188 1.63c-2.134 0-3.74 1.474-3.74 3.432 0 2.046 1.54 3.52 3.696 3.52 2.178 0 3.762-1.474 3.762-3.498 0-1.98-1.584-3.454-3.718-3.454zm-.022 1.584c1.056 0 1.914.858 1.914 1.892 0 1.056-.858 1.914-1.892 1.914a1.92 1.92 0 0 1-1.914-1.936c0-1.012.858-1.87 1.892-1.87zm7.92-1.892l-8.734 15.092 1.166.682 8.734-15.114zm.396 8.448c-2.134 0-3.74 1.474-3.74 3.41 0 2.046 1.54 3.52 3.696 3.52s3.74-1.474 3.74-3.476c0-1.98-1.584-3.454-3.696-3.454zm-.022 1.562c1.056 0 1.892.858 1.892 1.892 0 1.056-.858 1.914-1.892 1.914-1.056 0-1.892-.858-1.892-1.936 0-1.012.858-1.87 1.892-1.87zm16.126-4.686c-3.19 0-5.478 2.09-5.478 4.994 0 3.058 2.2 5.148 5.39 5.148 3.256 0 5.5-2.068 5.5-5.082 0-2.992-2.222-5.06-5.412-5.06zm-.044 2.398a2.685 2.685 0 0 1 2.706 2.684c0 1.474-1.21 2.662-2.684 2.662a2.676 2.676 0 0 1-2.706-2.706c0-1.43 1.232-2.64 2.684-2.64zm10.252.22h2.442v-2.31h-2.442V4.292c0-.748.044-1.144.198-1.474.154-.418.572-.682 1.034-.682.352 0 .638.088 1.21.352V.068c-.572-.264-.88-.33-1.408-.33-1.056 0-2.09.462-2.816 1.254-.638.726-.88 1.496-.88 2.904v3.058h-1.034v2.31h1.034v7.216h2.662zm6.446 0h2.442v-2.31H75.24V4.292c0-.748.044-1.144.198-1.474.154-.418.572-.682 1.034-.682.352 0 .638.088 1.21.352V.068c-.572-.264-.88-.33-1.408-.33-1.056 0-2.09.462-2.816 1.254-.638.726-.88 1.496-.88 2.904v3.058h-1.034v2.31h1.034v7.216h2.662z"/></svg>