<svg width="176" height="22" xmlns="http://www.w3.org/2000/svg"><path d="M3.102 8.362H4.73V6.91H3.102v-3.3H1.54v3.3H.594v1.452h.946v7.678h1.562zM6.204.002V16.04h1.562v-4.554c0-1.078.11-1.738.374-2.266.33-.682 1.034-1.078 1.936-1.078 1.342 0 1.892.682 1.892 2.354v5.544h1.562v-5.654c0-1.188-.154-1.848-.528-2.42-.506-.77-1.518-1.254-2.618-1.254-1.1 0-1.848.352-2.618 1.276V.002zm18.282 11.792v-.264c0-2.904-1.716-4.818-4.356-4.818-2.618 0-4.422 1.958-4.422 4.818 0 2.816 1.848 4.774 4.488 4.774 1.848 0 3.19-.814 4.202-2.596l-1.32-.748c-.88 1.408-1.606 1.914-2.816 1.914-1.65 0-2.816-1.21-2.904-3.08zm-7.018-1.32c.22-1.364 1.364-2.354 2.684-2.354 1.342 0 2.398.924 2.684 2.354zM28.204 6.91h-1.562v9.13h1.562zm-.77-4.576c-.616 0-1.122.506-1.122 1.1 0 .638.506 1.144 1.122 1.144.616 0 1.122-.506 1.122-1.122 0-.616-.506-1.122-1.122-1.122zm3.608 4.576v9.13h1.562v-4.818c0-1.1.11-1.76.352-2.2.264-.506.858-.836 1.452-.836.33 0 .528.066.924.308l.726-1.408c-.55-.308-.88-.396-1.386-.396-.858 0-1.254.242-2.068 1.21v-.99zm13.464 1.452h2.31V6.91h-2.31V3.39c0-1.65.264-2.09 1.254-2.09.352 0 .594.044 1.056.22V-.064c-.506-.154-.748-.198-1.144-.198-.946 0-1.716.33-2.2.968-.374.484-.528 1.21-.528 2.31V6.91h-.858v1.452h.858v7.678h1.562zm5.17-1.452h-1.562v9.13h1.562zm-.77-4.576c-.616 0-1.122.506-1.122 1.1 0 .638.506 1.144 1.122 1.144.616 0 1.122-.506 1.122-1.122 0-.616-.506-1.122-1.122-1.122zm3.608 4.576v9.13h1.562v-4.818c0-1.1.11-1.76.352-2.2.264-.506.858-.836 1.452-.836.33 0 .528.066.924.308l.726-1.408c-.55-.308-.88-.396-1.386-.396-.858 0-1.254.242-2.068 1.21v-.99zM63.8 8.362c-.572-1.122-1.386-1.65-2.508-1.65-1.518 0-2.662 1.1-2.662 2.552 0 1.21.528 1.738 2.64 2.662 1.144.484 1.474.814 1.474 1.518 0 .814-.638 1.43-1.496 1.43S59.95 14.5 59.422 13.4l-1.386.572c.594 1.54 1.672 2.332 3.19 2.332 1.782 0 3.124-1.276 3.124-2.97 0-.858-.352-1.518-1.012-2.002-.418-.308-.682-.44-1.738-.88-1.166-.484-1.474-.77-1.474-1.298 0-.55.506-1.012 1.1-1.012.55 0 .946.286 1.276.902zm4.4 0h1.628V6.91H68.2v-3.3h-1.562v3.3h-.946v1.452h.946v7.678H68.2zm10.296 0h2.31V6.91h-2.31V3.39c0-1.65.264-2.09 1.254-2.09.352 0 .594.044 1.056.22V-.064c-.506-.154-.748-.198-1.144-.198-.946 0-1.716.33-2.2.968-.374.484-.528 1.21-.528 2.31V6.91h-.858v1.452h.858v7.678h1.562zM89.034 6.91v1.298c-.902-1.056-1.87-1.518-3.19-1.518-2.508 0-4.356 2.002-4.356 4.752 0 2.816 1.848 4.862 4.4 4.862 1.298 0 2.266-.484 3.146-1.54v1.276h1.562V6.91zm-2.926 1.21c1.782 0 3.036 1.364 3.036 3.344 0 2.002-1.254 3.41-3.058 3.41-1.738 0-2.992-1.452-2.992-3.454 0-1.87 1.298-3.3 3.014-3.3zm7.656-1.21h-1.76l4.488 9.746 4.466-9.746h-1.76l-2.706 6.138zm12.826-.198c-2.662 0-4.84 2.112-4.84 4.708 0 2.75 2.09 4.884 4.796 4.884 2.75 0 4.862-2.09 4.862-4.796 0-2.706-2.112-4.796-4.818-4.796zm-.022 1.43c1.87 0 3.234 1.408 3.234 3.366 0 1.98-1.364 3.366-3.256 3.366-1.87 0-3.19-1.43-3.19-3.41 0-1.892 1.364-3.322 3.212-3.322zm6.996-1.232v9.13h1.562v-4.818c0-1.1.11-1.76.352-2.2.264-.506.858-.836 1.452-.836.33 0 .528.066.924.308l.726-1.408c-.55-.308-.88-.396-1.386-.396-.858 0-1.254.242-2.068 1.21v-.99zm7.832 0h-1.562v9.13h1.562zm-.77-4.576c-.616 0-1.122.506-1.122 1.1 0 .638.506 1.144 1.122 1.144.616 0 1.122-.506 1.122-1.122 0-.616-.506-1.122-1.122-1.122zm5.302 6.028h1.628V6.91h-1.628v-3.3h-1.562v3.3h-.946v1.452h.946v7.678h1.562zm11.242 3.432v-.264c0-2.904-1.716-4.818-4.356-4.818-2.618 0-4.422 1.958-4.422 4.818 0 2.816 1.848 4.774 4.488 4.774 1.848 0 3.19-.814 4.202-2.596l-1.32-.748c-.88 1.408-1.606 1.914-2.816 1.914-1.65 0-2.816-1.21-2.904-3.08zm-7.018-1.32c.22-1.364 1.364-2.354 2.684-2.354 1.342 0 2.398.924 2.684 2.354zm16.236 10.714v-6.424c.902 1.078 1.892 1.54 3.19 1.54 2.508 0 4.356-2.024 4.356-4.774 0-2.794-1.848-4.84-4.4-4.84-1.276 0-2.266.462-3.146 1.518V6.91h-1.562v14.278zm2.948-13.068c1.738 0 2.992 1.452 2.992 3.454 0 1.87-1.298 3.3-2.992 3.3-1.782 0-3.058-1.386-3.058-3.344 0-2.002 1.276-3.41 3.058-3.41zm8.338-1.21h-1.562v14.278h1.562zm-.77-4.576c-.616 0-1.122.506-1.122 1.1 0 .638.506 1.144 1.122 1.144.616 0 1.122-.506 1.122-1.122 0-.616-.506-1.122-1.122-1.122zm4.576 4.928l.308-5.896h-1.782l.286 5.896zm7.634 1.1c-.572-1.122-1.386-1.65-2.508-1.65-1.518 0-2.662 1.1-2.662 2.552 0 1.21.528 1.738 2.64 2.662 1.144.484 1.474.814 1.474 1.518 0 .814-.638 1.43-1.496 1.43s-1.298-.374-1.826-1.474l-1.386.572c.594 1.54 1.672 2.332 3.19 2.332 1.782 0 3.124-1.276 3.124-2.97 0-.858-.352-1.518-1.012-2.002-.418-.308-.682-.44-1.738-.88-1.166-.484-1.474-.77-1.474-1.298 0-.55.506-1.012 1.1-1.012.55 0 .946.286 1.276.902z"/></svg>