<svg width="155" height="31" xmlns="http://www.w3.org/2000/svg"><path d="M11.115 20.88h4.95c1.628 0 2.794-.352 3.652-1.122.836-.748 1.298-1.848 1.298-3.014 0-1.078-.396-2.112-1.056-2.772-.462-.484-.924-.704-1.914-.924.572-.352.814-.55 1.056-.88.33-.528.55-1.298.55-2.09 0-1.21-.506-2.354-1.32-2.992-.748-.594-1.892-.88-3.586-.88h-3.63zm2.86-8.558V8.516h.858c1.43 0 2.178.638 2.178 1.892 0 1.276-.748 1.914-2.222 1.914zm0 6.248V14.5h1.078c1.188 0 1.65.088 2.156.418.55.33.858.924.858 1.628 0 1.364-.924 2.024-2.86 2.024zm18.37-.792l1.254 3.102h3.058l-6.16-14.982h-2.156L21.983 20.88h3.036l1.32-3.102zm-.902-2.31h-4.18l2.134-5.28zm6.952 5.412h4.95c1.628 0 2.794-.352 3.652-1.122.836-.748 1.298-1.848 1.298-3.014 0-1.078-.396-2.112-1.056-2.772-.462-.484-.924-.704-1.914-.924.572-.352.814-.55 1.056-.88.33-.528.55-1.298.55-2.09 0-1.21-.506-2.354-1.32-2.992-.748-.594-1.892-.88-3.586-.88h-3.63zm2.86-8.558V8.516h.858c1.43 0 2.178.638 2.178 1.892 0 1.276-.748 1.914-2.222 1.914zm0 6.248V14.5h1.078c1.188 0 1.65.088 2.156.418.55.33.858.924.858 1.628 0 1.364-.924 2.024-2.86 2.024zm12.936-4.422v6.732h2.86v-6.732l5.148-7.942h-3.41l-3.102 5.104-3.168-5.104h-3.388zm9.57 6.732h4.95c1.628 0 2.794-.352 3.652-1.122.836-.748 1.298-1.848 1.298-3.014 0-1.078-.396-2.112-1.056-2.772-.462-.484-.924-.704-1.914-.924.572-.352.814-.55 1.056-.88.33-.528.55-1.298.55-2.09 0-1.21-.506-2.354-1.32-2.992-.748-.594-1.892-.88-3.586-.88h-3.63zm2.86-8.558V8.516h.858c1.43 0 2.178.638 2.178 1.892 0 1.276-.748 1.914-2.222 1.914zm0 6.248V14.5h1.078c1.188 0 1.65.088 2.156.418.55.33.858.924.858 1.628 0 1.364-.924 2.024-2.86 2.024zm12.54-12.364h-2.86v8.976c0 1.716.33 2.926 1.078 3.916 1.012 1.32 2.816 2.112 4.818 2.112s3.806-.792 4.818-2.112c.748-.99 1.078-2.2 1.078-3.916V6.206h-2.86v8.404c0 1.496-.088 1.98-.462 2.618-.484.836-1.474 1.364-2.574 1.364-1.1 0-2.09-.528-2.574-1.364-.374-.638-.462-1.122-.462-2.618zM90.667 20.88h2.882l1.474-9.042 3.894 9.24h.792l4.026-9.24 1.32 9.042h2.882l-2.442-14.938h-1.98l-4.158 9.592-4.004-9.592h-1.958zm22.748-5.434h1.848c1.738 0 2.926-.418 3.762-1.298.748-.814 1.188-2.002 1.188-3.278 0-1.408-.55-2.684-1.496-3.542-.924-.814-1.958-1.122-3.872-1.122h-4.29V20.88h2.86zm0-2.486V8.692h.99c1.056 0 1.672.132 2.112.462.462.352.748.99.748 1.694 0 1.408-.902 2.112-2.684 2.112zm12.936 5.434l2.552-2.706c1.87-1.98 2.662-3.498 2.662-5.126 0-2.728-2.2-4.73-5.17-4.73-2.97 0-4.95 1.914-5.148 4.95h3.058c.066-1.518.858-2.42 2.178-2.42 1.232 0 2.222.968 2.222 2.222 0 1.232-.704 2.354-3.366 5.39l-4.334 4.906h10.67v-2.486zm13.002-12.562c-1.606 0-3.102.814-4.18 2.244-.99 1.342-1.518 3.212-1.518 5.346 0 2.398.484 4.136 1.518 5.588 1.034 1.43 2.552 2.244 4.18 2.244 1.606 0 3.124-.836 4.158-2.244 1.012-1.43 1.518-3.212 1.518-5.478 0-2.266-.506-4.048-1.518-5.456-1.056-1.43-2.552-2.244-4.158-2.244zm0 2.53c1.65 0 2.816 2.156 2.816 5.17 0 3.036-1.166 5.192-2.816 5.192-1.672 0-2.838-2.156-2.838-5.258 0-2.948 1.188-5.104 2.838-5.104z"/></svg>