<svg width="237" height="42" xmlns="http://www.w3.org/2000/svg"><path d="M16.72 1H15.3v14.58h1.42zm9.96 10.72v-.24c0-2.64-1.56-4.38-3.96-4.38-2.38 0-4.02 1.78-4.02 4.38 0 2.56 1.68 4.34 4.08 4.34 1.68 0 2.9-.74 3.82-2.36l-1.2-.68c-.8 1.28-1.46 1.74-2.56 1.74-1.5 0-2.56-1.1-2.64-2.8zm-6.38-1.2c.2-1.24 1.24-2.14 2.44-2.14 1.22 0 2.18.84 2.44 2.14zm16.06-3.24h-1.42v1.18c-.76-.94-1.68-1.38-2.86-1.38-2.32 0-4.02 1.86-4.02 4.38 0 2.48 1.7 4.34 3.96 4.34 1.12 0 2.1-.46 2.92-1.36v1.2c0 1.02-.16 1.72-.54 2.24-.44.64-1.22 1.02-2.12 1.02-.96 0-1.84-.42-2.26-1.1-.24-.38-.34-.7-.4-1.4h-1.4c.08 2.32 1.64 3.8 4.02 3.8 1.38 0 2.58-.56 3.32-1.54.6-.8.8-1.6.8-3.26zm-4.12 1.08c.66 0 1.34.26 1.86.72.62.56.9 1.32.9 2.38 0 1.8-1.16 3.06-2.78 3.06-1.58 0-2.7-1.26-2.7-3.08 0-1.78 1.14-3.08 2.72-3.08zm14.08 3.36v-.24c0-2.64-1.56-4.38-3.96-4.38-2.38 0-4.02 1.78-4.02 4.38 0 2.56 1.68 4.34 4.08 4.34 1.68 0 2.9-.74 3.82-2.36l-1.2-.68c-.8 1.28-1.46 1.74-2.56 1.74-1.5 0-2.56-1.1-2.64-2.8zm-6.38-1.2c.2-1.24 1.24-2.14 2.44-2.14 1.22 0 2.18.84 2.44 2.14zm8.34-3.24v8.3h1.42v-4.14c0-2.16.62-3.08 2.06-3.08.68 0 1.22.26 1.48.7.22.34.28.74.28 1.62v4.9h1.42v-5.14c0-1.08-.14-1.7-.46-2.22-.46-.7-1.38-1.14-2.38-1.14-1.04 0-1.68.32-2.4 1.2v-1zM63.8 1v7.46c-.82-.94-1.72-1.36-2.9-1.36-2.28 0-3.96 1.82-3.96 4.32 0 2.54 1.7 4.4 4 4.4 1.18 0 2.16-.48 2.84-1.38v1.14h1.44V1zm-2.66 7.4c.68 0 1.38.28 1.9.76.58.52.84 1.24.84 2.26 0 1.86-1.1 3.1-2.76 3.1-1.58 0-2.72-1.32-2.72-3.14 0-1.68 1.18-2.98 2.74-2.98zm12.92-1.12v1.18c-.82-.96-1.7-1.38-2.9-1.38-2.28 0-3.96 1.82-3.96 4.32 0 2.56 1.68 4.42 4 4.42 1.18 0 2.06-.44 2.86-1.4v1.16h1.42v-8.3zm-2.66 1.1c1.62 0 2.76 1.24 2.76 3.04 0 1.82-1.14 3.1-2.78 3.1-1.58 0-2.72-1.32-2.72-3.14 0-1.7 1.18-3 2.74-3zm6.62-1.1v8.3h1.42V11.2c0-1 .1-1.6.32-2 .24-.46.78-.76 1.32-.76.3 0 .48.06.84.28l.66-1.28c-.5-.28-.8-.36-1.26-.36-.78 0-1.14.22-1.88 1.1v-.9zm8.26 7.52l-2.68 5.46h1.6l6.14-12.98h-1.62l-2.68 5.94-2.94-5.94h-1.64zm17.64 5.46h1.42V7.28h-1.44v1.18c-.68-.9-1.66-1.38-2.84-1.38-2.32 0-4 1.86-4 4.4 0 2.5 1.68 4.34 3.96 4.34 1.18 0 2.08-.44 2.9-1.4zm-2.66-11.88c1.64 0 2.74 1.26 2.74 3.1 0 .86-.22 1.6-.62 2.06-.54.62-1.32.98-2.14.98-1.58 0-2.72-1.3-2.72-3.1 0-1.74 1.18-3.04 2.74-3.04zm8.04-1.1h-1.42v5c0 1.22.2 1.88.76 2.5.6.68 1.5 1.04 2.54 1.04 1.02 0 1.92-.36 2.52-1.04.56-.62.76-1.28.76-2.5v-5h-1.42v4.84c0 .78-.08 1.2-.26 1.56-.28.52-.9.84-1.6.84-.72 0-1.34-.32-1.62-.84-.18-.36-.26-.78-.26-1.56zm14.02 0v1.18c-.82-.96-1.7-1.38-2.9-1.38-2.28 0-3.96 1.82-3.96 4.32 0 2.56 1.68 4.42 4 4.42 1.18 0 2.06-.44 2.86-1.4v1.16h1.42v-8.3zm-2.66 1.1c1.62 0 2.76 1.24 2.76 3.04 0 1.82-1.14 3.1-2.78 3.1-1.58 0-2.72-1.32-2.72-3.14 0-1.7 1.18-3 2.74-3zM128.7 1h-1.42v14.58h1.42zm3.98 6.28h-1.42v8.3h1.42zm-.7-4.16c-.56 0-1.02.46-1.02 1 0 .58.46 1.04 1.02 1.04S133 4.7 133 4.14s-.46-1.02-1.02-1.02zm4.82 5.48h1.48V7.28h-1.48v-3h-1.42v3h-.86V8.6h.86v6.98h1.42zm5.38 6.2l-2.68 5.46h1.6l6.14-12.98h-1.62l-2.68 5.94L140 7.28h-1.64zm7.2-1.18l-1.66 4.62.96.38 2-4.52zm13.24-5.02c-.52-1.02-1.26-1.5-2.28-1.5-1.38 0-2.42 1-2.42 2.32 0 1.1.48 1.58 2.4 2.42 1.04.44 1.34.74 1.34 1.38 0 .74-.58 1.3-1.36 1.3-.78 0-1.18-.34-1.66-1.34l-1.26.52c.54 1.4 1.52 2.12 2.9 2.12 1.62 0 2.84-1.16 2.84-2.7 0-.78-.32-1.38-.92-1.82-.38-.28-.62-.4-1.58-.8-1.06-.44-1.34-.7-1.34-1.18 0-.5.46-.92 1-.92.5 0 .86.26 1.16.82zm8.76-1.32v1.18c-.82-.96-1.7-1.38-2.9-1.38-2.28 0-3.96 1.82-3.96 4.32 0 2.56 1.68 4.42 4 4.42 1.18 0 2.06-.44 2.86-1.4v1.16h1.42v-8.3zm-2.66 1.1c1.62 0 2.76 1.24 2.76 3.04 0 1.82-1.14 3.1-2.78 3.1-1.58 0-2.72-1.32-2.72-3.14 0-1.7 1.18-3 2.74-3zm8.16.22h2.1V7.28h-2.1v-3.2c0-1.5.24-1.9 1.14-1.9.32 0 .54.04.96.2V.94c-.46-.14-.68-.18-1.04-.18-.86 0-1.56.3-2 .88-.34.44-.48 1.1-.48 2.1v3.54h-.78V8.6h.78v6.98h1.42zm10.68 3.12v-.24c0-2.64-1.56-4.38-3.96-4.38-2.38 0-4.02 1.78-4.02 4.38 0 2.56 1.68 4.34 4.08 4.34 1.68 0 2.9-.74 3.82-2.36l-1.2-.68c-.8 1.28-1.46 1.74-2.56 1.74-1.5 0-2.56-1.1-2.64-2.8zm-6.38-1.2c.2-1.24 1.24-2.14 2.44-2.14 1.22 0 2.18.84 2.44 2.14zm19.64-3.24v1.18c-.82-.96-1.7-1.38-2.9-1.38-2.28 0-3.96 1.82-3.96 4.32 0 2.56 1.68 4.42 4 4.42 1.18 0 2.06-.44 2.86-1.4v1.16h1.42v-8.3zm-2.66 1.1c1.62 0 2.76 1.24 2.76 3.04 0 1.82-1.14 3.1-2.78 3.1-1.58 0-2.72-1.32-2.72-3.14 0-1.7 1.18-3 2.74-3zm6.62-1.1v8.3h1.42v-4.14c0-2.16.62-3.08 2.06-3.08.68 0 1.22.26 1.48.7.22.34.28.74.28 1.62v4.9h1.42v-5.14c0-1.08-.14-1.7-.46-2.22-.46-.7-1.38-1.14-2.38-1.14-1.04 0-1.68.32-2.4 1.2v-1zM220.3 1v7.46c-.82-.94-1.72-1.36-2.9-1.36-2.28 0-3.96 1.82-3.96 4.32 0 2.54 1.7 4.4 4 4.4 1.18 0 2.16-.48 2.84-1.38v1.14h1.44V1zm-2.66 7.4c.68 0 1.38.28 1.9.76.58.52.84 1.24.84 2.26 0 1.86-1.1 3.1-2.76 3.1-1.58 0-2.72-1.32-2.72-3.14 0-1.68 1.18-2.98 2.74-2.98zM38.77 30.6c-.52-1.02-1.26-1.5-2.28-1.5-1.38 0-2.42 1-2.42 2.32 0 1.1.48 1.58 2.4 2.42 1.04.44 1.34.74 1.34 1.38 0 .74-.58 1.3-1.36 1.3-.78 0-1.18-.34-1.66-1.34l-1.26.52c.54 1.4 1.52 2.12 2.9 2.12 1.62 0 2.84-1.16 2.84-2.7 0-.78-.32-1.38-.92-1.82-.38-.28-.62-.4-1.58-.8-1.06-.44-1.34-.7-1.34-1.18 0-.5.46-.92 1-.92.5 0 .86.26 1.16.82zm6.28-1.5c-2.42 0-4.4 1.92-4.4 4.28 0 2.5 1.9 4.44 4.36 4.44 2.5 0 4.42-1.9 4.42-4.36 0-2.46-1.92-4.36-4.38-4.36zm-.02 1.3c1.7 0 2.94 1.28 2.94 3.06 0 1.8-1.24 3.06-2.96 3.06-1.7 0-2.9-1.3-2.9-3.1 0-1.72 1.24-3.02 2.92-3.02zm7.9.2h2.1v-1.32h-2.1v-3.2c0-1.5.24-1.9 1.14-1.9.32 0 .54.04.96.2v-1.44c-.46-.14-.68-.18-1.04-.18-.86 0-1.56.3-2 .88-.34.44-.48 1.1-.48 2.1v3.54h-.78v1.32h.78v6.98h1.42zm4.82 0h1.48v-1.32h-1.48v-3h-1.42v3h-.86v1.32h.86v6.98h1.42zm7.82-1.32v8.3h1.42v-4.14c0-2.16.62-3.08 2.06-3.08.68 0 1.22.26 1.48.7.22.34.28.74.28 1.62v4.9h1.42v-5.14c0-1.08-.14-1.7-.46-2.22-.46-.7-1.38-1.14-2.38-1.14-1.04 0-1.68.32-2.4 1.2v-1zm16.62 4.44v-.24c0-2.64-1.56-4.38-3.96-4.38-2.38 0-4.02 1.78-4.02 4.38 0 2.56 1.68 4.34 4.08 4.34 1.68 0 2.9-.74 3.82-2.36l-1.2-.68c-.8 1.28-1.46 1.74-2.56 1.74-1.5 0-2.56-1.1-2.64-2.8zm-6.38-1.2c.2-1.24 1.24-2.14 2.44-2.14 1.22 0 2.18.84 2.44 2.14zm10.64.64l-3.54 4.42h1.78l2.64-3.38 2.62 3.38h1.72l-3.44-4.42 3.04-3.88h-1.76l-2.18 2.82-2.16-2.82h-1.74zm8.14-2.56h1.48v-1.32h-1.48v-3h-1.42v3h-.86v1.32h.86v6.98h1.42zm9.36 0h1.48v-1.32h-1.48v-3h-1.42v3h-.86v1.32h.86v6.98h1.42zm6.64-1.5c-2.42 0-4.4 1.92-4.4 4.28 0 2.5 1.9 4.44 4.36 4.44 2.5 0 4.42-1.9 4.42-4.36 0-2.46-1.92-4.36-4.38-4.36zm-.02 1.3c1.7 0 2.94 1.28 2.94 3.06 0 1.8-1.24 3.06-2.96 3.06-1.7 0-2.9-1.3-2.9-3.1 0-1.72 1.24-3.02 2.92-3.02zm12.78-7.4h-1.42v14.58h1.42v-1.14c.78.94 1.7 1.38 2.86 1.38 2.3 0 4-1.86 4-4.4 0-2.5-1.68-4.32-3.96-4.32-1.2 0-2.08.42-2.9 1.36zm2.68 7.4c1.58 0 2.72 1.3 2.72 3.08 0 1.74-1.18 3.04-2.74 3.04-1.62 0-2.76-1.28-2.76-3.08 0-1.82 1.14-3.04 2.78-3.04zm12.46-1.12v1.18c-.82-.96-1.7-1.38-2.9-1.38-2.28 0-3.96 1.82-3.96 4.32 0 2.56 1.68 4.42 4 4.42 1.18 0 2.06-.44 2.86-1.4v1.16h1.42v-8.3zm-2.66 1.1c1.62 0 2.76 1.24 2.76 3.04 0 1.82-1.14 3.1-2.78 3.1-1.58 0-2.72-1.32-2.72-3.14 0-1.7 1.18-3 2.74-3zm8.04-7.38h-1.42v14.58h1.42v-1.14c.78.94 1.7 1.38 2.86 1.38 2.3 0 4-1.86 4-4.4 0-2.5-1.68-4.32-3.96-4.32-1.2 0-2.08.42-2.9 1.36zm2.68 7.4c1.58 0 2.72 1.3 2.72 3.08 0 1.74-1.18 3.04-2.74 3.04-1.62 0-2.76-1.28-2.76-3.08 0-1.82 1.14-3.04 2.78-3.04zm8.72 6.4l-2.68 5.46h1.6l6.14-12.98h-1.62l-2.68 5.94-2.94-5.94h-1.64zm7.22-7.2l.28-5.36h-1.62l.26 5.36zm6.94 1c-.52-1.02-1.26-1.5-2.28-1.5-1.38 0-2.42 1-2.42 2.32 0 1.1.48 1.58 2.4 2.42 1.04.44 1.34.74 1.34 1.38 0 .74-.58 1.3-1.36 1.3-.78 0-1.18-.34-1.66-1.34l-1.26.52c.54 1.4 1.52 2.12 2.9 2.12 1.62 0 2.84-1.16 2.84-2.7 0-.78-.32-1.38-.92-1.82-.38-.28-.62-.4-1.58-.8-1.06-.44-1.34-.7-1.34-1.18 0-.5.46-.92 1-.92.5 0 .86.26 1.16.82zm12.02 0c-.52-1.02-1.26-1.5-2.28-1.5-1.38 0-2.42 1-2.42 2.32 0 1.1.48 1.58 2.4 2.42 1.04.44 1.34.74 1.34 1.38 0 .74-.58 1.3-1.36 1.3-.78 0-1.18-.34-1.66-1.34l-1.26.52c.54 1.4 1.52 2.12 2.9 2.12 1.62 0 2.84-1.16 2.84-2.7 0-.78-.32-1.38-.92-1.82-.38-.28-.62-.4-1.58-.8-1.06-.44-1.34-.7-1.34-1.18 0-.5.46-.92 1-.92.5 0 .86.26 1.16.82zm3.88-7.6h-1.42v14.58h1.42v-3.42l.36-.36 3.34 3.78h1.88l-4.22-4.76 3.54-3.54h-1.9l-3 3.06zm8.22 6.28h-1.42v8.3h1.42zm-.7-4.16c-.56 0-1.02.46-1.02 1 0 .58.46 1.04 1.02 1.04s1.02-.46 1.02-1.02-.46-1.02-1.02-1.02zm3.28 4.16v8.3h1.42v-4.14c0-2.16.62-3.08 2.06-3.08.68 0 1.22.26 1.48.7.22.34.28.74.28 1.62v4.9h1.42v-5.14c0-1.08-.14-1.7-.46-2.22-.46-.7-1.38-1.14-2.38-1.14-1.04 0-1.68.32-2.4 1.2v-1z"/></svg>