<svg width="168" height="26" xmlns="http://www.w3.org/2000/svg"><path d="M37.443 6.208a5.254 5.254 0 0 0-3.528-1.332c-2.16 0-3.744 1.476-3.744 3.492 0 1.584.792 2.448 2.952 3.24.972.36 1.44.558 1.674.72.432.306.648.72.648 1.206 0 .99-.774 1.692-1.854 1.692s-1.98-.576-2.52-1.602l-1.512 1.458c1.08 1.566 2.376 2.286 4.122 2.286 2.484 0 4.176-1.602 4.176-3.96 0-1.062-.36-1.926-1.062-2.52-.54-.468-1.08-.72-2.394-1.206-1.404-.522-1.818-.864-1.818-1.512 0-.738.738-1.332 1.692-1.332.756 0 1.314.27 1.944.972zm4.824 3.51V5.074h-2.34V17.08h2.34v-5.328h5.076v5.328h2.34V5.074h-2.34v4.644zm16.002-4.914c-3.564 0-6.444 2.772-6.444 6.192 0 3.6 2.754 6.354 6.354 6.354 3.654 0 6.48-2.718 6.48-6.264 0-3.528-2.808-6.282-6.39-6.282zm-.036 2.142c2.232 0 4.014 1.836 4.014 4.122 0 2.286-1.8 4.14-3.996 4.14-2.232 0-4.014-1.854-4.014-4.176 0-2.232 1.818-4.086 3.996-4.086zm10.926 5.688h1.512c1.422 0 2.394-.342 3.078-1.062.612-.666.972-1.638.972-2.682 0-1.152-.45-2.196-1.224-2.898-.756-.666-1.602-.918-3.168-.918h-3.51V17.08h2.34zm0-2.034V7.108h.81c.864 0 1.368.108 1.728.378.378.288.612.81.612 1.386 0 1.152-.738 1.728-2.196 1.728zm11.79 6.48h2.34V8.962l7.308 8.352h1.62V5.074h-2.34v8.082l-7.308-8.352h-1.62zm19.854-12.276c-3.564 0-6.444 2.772-6.444 6.192 0 3.6 2.754 6.354 6.354 6.354 3.654 0 6.48-2.718 6.48-6.264 0-3.528-2.808-6.282-6.39-6.282zm-.036 2.142c2.232 0 4.014 1.836 4.014 4.122 0 2.286-1.8 4.14-3.996 4.14-2.232 0-4.014-1.854-4.014-4.176 0-2.232 1.818-4.086 3.996-4.086zm9.684-1.872h-2.466l4.248 12.24h1.638l2.808-7.848 2.664 7.848h1.638l4.518-12.24h-2.466l-2.88 8.172-2.79-8.28h-1.278l-2.934 8.28zm20.178 10.962l7.794-3.978v-1.962l-7.794-3.978v2.304l5.328 2.646-5.328 2.646z"/></svg>