<svg width="88" height="31" xmlns="http://www.w3.org/2000/svg"><path d="M3.41 5.766H1.76v9.438c0 1.606.264 2.574.968 3.476.946 1.254 2.574 2.024 4.268 2.024 1.672 0 3.278-.77 4.246-2.024.704-.902.968-1.892.968-3.476V5.766h-1.65v8.998c0 1.518-.11 2.178-.484 2.816-.572.924-1.826 1.584-3.08 1.584-1.276 0-2.53-.66-3.102-1.584-.374-.638-.484-1.298-.484-2.816zm16.984 6.996c-.572-1.122-1.386-1.65-2.508-1.65-1.518 0-2.662 1.1-2.662 2.552 0 1.21.528 1.738 2.64 2.662 1.144.484 1.474.814 1.474 1.518 0 .814-.638 1.43-1.496 1.43s-1.298-.374-1.826-1.474l-1.386.572c.594 1.54 1.672 2.332 3.19 2.332 1.782 0 3.124-1.276 3.124-2.97 0-.858-.352-1.518-1.012-2.002-.418-.308-.682-.44-1.738-.88-1.166-.484-1.474-.77-1.474-1.298 0-.55.506-1.012 1.1-1.012.55 0 .946.286 1.276.902zm10.846 3.432v-.264c0-2.904-1.716-4.818-4.356-4.818-2.618 0-4.422 1.958-4.422 4.818 0 2.816 1.848 4.774 4.488 4.774 1.848 0 3.19-.814 4.202-2.596l-1.32-.748c-.88 1.408-1.606 1.914-2.816 1.914-1.65 0-2.816-1.21-2.904-3.08zm-7.018-1.32c.22-1.364 1.364-2.354 2.684-2.354 1.342 0 2.398.924 2.684 2.354zm21.736-2.904c-.946-.616-1.76-.858-2.838-.858-2.75 0-4.862 2.09-4.862 4.818 0 2.684 2.112 4.774 4.84 4.774 1.056 0 1.804-.242 2.926-.946V17.69c-1.034 1.166-1.826 1.584-2.97 1.584-1.804 0-3.19-1.452-3.19-3.366 0-1.914 1.386-3.366 3.234-3.366 1.1 0 1.848.396 2.86 1.496zm6.446-.858c-2.662 0-4.84 2.112-4.84 4.708 0 2.75 2.09 4.884 4.796 4.884 2.75 0 4.862-2.09 4.862-4.796 0-2.706-2.112-4.796-4.818-4.796zm-.022 1.43c1.87 0 3.234 1.408 3.234 3.366 0 1.98-1.364 3.366-3.256 3.366-1.87 0-3.19-1.43-3.19-3.41 0-1.892 1.364-3.322 3.212-3.322zm13.926-8.14v8.206c-.902-1.034-1.892-1.496-3.19-1.496-2.508 0-4.356 2.002-4.356 4.752 0 2.794 1.87 4.84 4.4 4.84 1.298 0 2.376-.528 3.124-1.518v1.254h1.584V4.402zm-2.926 8.14c.748 0 1.518.308 2.09.836.638.572.924 1.364.924 2.486 0 2.046-1.21 3.41-3.036 3.41-1.738 0-2.992-1.452-2.992-3.454 0-1.848 1.298-3.278 3.014-3.278zm15.422 3.652v-.264c0-2.904-1.716-4.818-4.356-4.818-2.618 0-4.422 1.958-4.422 4.818 0 2.816 1.848 4.774 4.488 4.774 1.848 0 3.19-.814 4.202-2.596l-1.32-.748c-.88 1.408-1.606 1.914-2.816 1.914-1.65 0-2.816-1.21-2.904-3.08zm-7.018-1.32c.22-1.364 1.364-2.354 2.684-2.354 1.342 0 2.398.924 2.684 2.354zm10.252 3.608a1.09 1.09 0 0 0 .022 2.178c.594 0 1.078-.484 1.078-1.1 0-.594-.484-1.078-1.1-1.078zm0-7.37c-.594 0-1.078.484-1.078 1.056 0 .616.484 1.1 1.078 1.1a1.08 1.08 0 0 0 1.078-1.078 1.08 1.08 0 0 0-1.078-1.078z"/></svg>